# Blender v2.69 (sub 0) OBJ File: 'wall1.blend'
# www.blender.org
mtllib wall1.mtl
o Cube
v 0.449060 -0.021029 -3.841009
v 0.449060 -0.021029 4.158991
v 0.049060 -0.021029 4.158990
v 0.049060 -0.021029 -3.841011
v 0.449060 3.258970 -3.841007
v 0.449060 3.258970 4.158993
v 0.049060 3.258970 4.158989
v 0.049060 3.258970 -3.841009
vt 0.000000 0.000000
vt 1.000000 0.000000
vt 0.000000 1.000000
vt 1.000000 1.000000
vn 0.000000 -1.000000 0.000000
vn 0.000000 1.000000 0.000000
vn 1.000000 -0.000000 0.000000
vn 0.000000 -0.000001 1.000000
vn -1.000000 -0.000000 -0.000000
vn 0.000006 0.000001 -1.000000
vn -0.000010 0.000000 1.000000
vn 0.000006 0.000000 -1.000000
usemtl Material
s off
f 1/1/1 2/2/1 4/3/1
f 5/1/2 8/2/2 6/3/2
f 1/1/3 5/2/3 2/3/3
f 2/1/4 6/2/4 3/3/4
f 3/1/5 7/2/5 4/3/5
f 5/1/6 1/2/6 8/3/6
f 2/2/1 3/4/1 4/3/1
f 8/2/2 7/4/2 6/3/2
f 5/2/3 6/4/3 2/3/3
f 6/2/7 7/4/7 3/3/7
f 7/2/5 8/4/5 4/3/5
f 1/2/8 4/4/8 8/3/8
