# Blender v2.69 (sub 0) OBJ File: ''
# www.blender.org
mtllib cylinder.mtl
o Cylinder_Cylinder.001_Material_Cylinder_Cylinder.001_Material_M
v 4.523984 0.309005 -3.089797
v 4.523984 3.062892 -3.089796
v 4.577434 0.309005 -3.084995
v 4.577434 3.062892 -3.084994
v 4.628830 0.309005 -3.070774
v 4.628830 3.062892 -3.070774
v 4.676197 0.309005 -3.047681
v 4.676197 3.062892 -3.047679
v 4.717715 0.309005 -3.016602
v 4.717715 3.062892 -3.016602
v 4.751788 0.309005 -2.978734
v 4.751788 3.062892 -2.978733
v 4.777105 0.309005 -2.935528
v 4.777105 3.062892 -2.935528
v 4.792696 0.309005 -2.888649
v 4.792696 3.062892 -2.888648
v 4.797960 0.309005 -2.839895
v 4.797960 3.062892 -2.839895
v 4.792696 0.309005 -2.791142
v 4.792696 3.062892 -2.791142
v 4.777105 0.309005 -2.744262
v 4.777105 3.062892 -2.744261
v 4.751788 0.309005 -2.701057
v 4.751788 3.062892 -2.701056
v 4.717715 0.309005 -2.663188
v 4.717715 3.062892 -2.663188
v 4.676197 0.309004 -2.632110
v 4.676197 3.062892 -2.632108
v 4.628830 0.309004 -2.609017
v 4.628830 3.062892 -2.609015
v 4.577434 0.309004 -2.594795
v 4.577434 3.062892 -2.594795
v 4.523984 0.309004 -2.589993
v 4.523984 3.062892 -2.589993
v 4.470533 0.309004 -2.594795
v 4.470533 3.062892 -2.594795
v 4.419137 0.309004 -2.609017
v 4.419137 3.062892 -2.609015
v 4.371770 0.309004 -2.632110
v 4.371770 3.062892 -2.632108
v 4.330252 0.309005 -2.663188
v 4.330252 3.062892 -2.663188
v 4.296179 0.309005 -2.701057
v 4.296179 3.062892 -2.701056
v 4.270861 0.309005 -2.744262
v 4.270861 3.062892 -2.744262
v 4.255271 0.309005 -2.791142
v 4.255271 3.062892 -2.791142
v 4.250007 0.309005 -2.839895
v 4.250007 3.062892 -2.839895
v 4.255271 0.309005 -2.888649
v 4.255271 3.062892 -2.888648
v 4.270862 0.309005 -2.935528
v 4.270862 3.062892 -2.935528
v 4.296179 0.309005 -2.978734
v 4.296179 3.062892 -2.978733
v 4.330253 0.309005 -3.016602
v 4.330253 3.062892 -3.016602
v 4.371770 0.309005 -3.047681
v 4.371770 3.062892 -3.047679
v 4.419137 0.309005 -3.070774
v 4.470534 3.062892 -3.084994
v 4.470534 0.309005 -3.084995
v 4.419137 3.062892 -3.070774
vt 0.941389 0.133213
vt 0.941389 1.000000
vt 0.924497 0.133213
vt 0.924497 1.000000
vt 0.907979 0.133213
vt 0.907979 1.000000
vt 0.892467 0.133213
vt 0.892467 1.000000
vt 0.878559 0.133213
vt 0.878559 1.000000
vt 0.866788 0.133213
vt 0.866787 0.233108
vt 0.000000 0.233108
vt 0.866787 0.220429
vt 0.000000 0.220429
vt 0.866787 0.206276
vt 0.000000 0.206276
vt 0.866787 0.191192
vt 0.000000 0.191192
vt 0.866787 0.175758
vt 0.000000 0.175758
vt 0.866787 0.160566
vt 0.000000 0.160566
vt 0.866787 0.146200
vt 0.000000 0.146200
vt 0.866787 0.133213
vt 0.000000 0.133213
vt 0.866788 0.121095
vt 0.000000 0.121095
vt 0.866788 0.106915
vt 0.000000 0.106915
vt 0.866788 0.091216
vt 0.000000 0.091216
vt 0.866788 0.074601
vt 0.000000 0.074601
vt 0.866788 0.057710
vt 0.000000 0.057710
vt 0.866788 0.041191
vt 0.000000 0.041191
vt 0.866788 0.025679
vt 0.000000 0.025679
vt 0.866787 0.011771
vt 0.000000 0.011771
vt 0.866787 0.000000
vt 0.866787 0.333004
vt 0.000000 0.333004
vt 0.866787 0.320325
vt 0.000000 0.320325
vt 0.866787 0.306171
vt 0.000000 0.306172
vt 0.866787 0.291088
vt 0.000000 0.291088
vt 0.866787 0.275654
vt 0.000000 0.275654
vt 0.866787 0.260462
vt 0.000000 0.260462
vt 0.866787 0.246096
vt 0.000000 0.246096
vt 1.000000 0.133213
vt 1.000000 1.000000
vt 0.987883 0.133213
vt 0.987883 1.000000
vt 0.973702 0.133213
vt 0.159693 0.442551
vt 0.156683 0.425931
vt 0.165599 0.458263
vt 0.958003 1.000000
vt 0.958003 0.133213
vt 0.973702 1.000000
vt 0.000000 0.411853
vt 0.003011 0.395232
vt 0.000000 0.428744
vt 0.866788 1.000000
vt 0.000000 0.000000
vt 0.156683 0.409039
vt 0.159693 0.392527
vt 0.165598 0.377027
vt 0.174171 0.363137
vt 0.185083 0.351388
vt 0.197914 0.342235
vt 0.212172 0.336027
vt 0.227307 0.333004
vt 0.242739 0.333281
vt 0.257874 0.336847
vt 0.272131 0.343567
vt 0.227308 0.504503
vt 0.257875 0.501757
vt 0.242740 0.504780
vt 0.212173 0.500936
vt 0.272133 0.495549
vt 0.284964 0.486395
vt 0.197916 0.494216
vt 0.295875 0.474647
vt 0.185085 0.484601
vt 0.304449 0.460756
vt 0.174173 0.472461
vt 0.310354 0.445257
vt 0.313365 0.428745
vt 0.313365 0.411853
vt 0.310354 0.395232
vt 0.304448 0.379521
vt 0.295875 0.365322
vt 0.284962 0.353182
vt 0.008917 0.379521
vt 0.017490 0.365323
vt 0.028402 0.353182
vt 0.041233 0.343567
vt 0.055491 0.336848
vt 0.070626 0.333281
vt 0.086058 0.333004
vt 0.101193 0.336027
vt 0.115450 0.342235
vt 0.128282 0.351388
vt 0.139193 0.363137
vt 0.055489 0.501757
vt 0.086056 0.504503
vt 0.070625 0.504780
vt 0.041232 0.495549
vt 0.101192 0.500936
vt 0.115449 0.494216
vt 0.028401 0.486395
vt 0.017489 0.474647
vt 0.128280 0.484601
vt 0.139192 0.472461
vt 0.008916 0.460757
vt 0.147766 0.458263
vt 0.003010 0.445257
vt 0.153672 0.442551
vt 0.156683 0.425930
vt 0.153672 0.392526
vt 0.147766 0.377027
vn 0.089477 0.000001 -0.995989
vn 0.266679 0.000001 -0.963785
vn 0.438222 0.000000 -0.898867
vn 0.599270 0.000001 -0.800547
vn 0.743371 0.000000 -0.668879
vn 0.862789 0.000000 -0.505564
vn 0.948896 0.000000 -0.315588
vn 0.994222 0.000000 -0.107342
vn 0.994222 0.000000 0.107345
vn 0.948899 0.000000 0.315580
vn 0.862789 -0.000000 0.505564
vn 0.743380 0.000000 0.668869
vn 0.599253 0.000000 0.800560
vn 0.438227 -0.000000 0.898864
vn 0.266691 -0.000001 0.963782
vn 0.089477 -0.000000 0.995989
vn -0.089482 -0.000000 0.995989
vn -0.266697 -0.000000 0.963781
vn -0.438227 -0.000000 0.898864
vn -0.599257 -0.000001 0.800557
vn -0.743380 -0.000000 0.668869
vn -0.862777 0.000000 0.505584
vn -0.948904 0.000000 0.315564
vn -0.994222 0.000000 0.107344
vn -0.994222 0.000000 -0.107344
vn -0.948897 0.000000 -0.315586
vn -0.862796 0.000000 -0.505552
vn -0.743362 0.000000 -0.668890
vn -0.599270 0.000000 -0.800547
vn -0.438222 0.000001 -0.898867
vn 0.000000 1.000000 0.000000
vn -0.089477 0.000001 -0.995989
vn -0.266662 0.000000 -0.963790
vn 0.000000 -1.000000 0.000000
vn 0.266655 0.000000 -0.963792
vn 0.438243 0.000001 -0.898856
vn 0.599253 -0.000000 -0.800560
vn 0.743383 0.000000 -0.668866
vn 0.862793 0.000000 -0.505558
vn 0.948898 0.000000 -0.315582
vn 0.994222 -0.000000 -0.107346
vn 0.994222 -0.000000 0.107344
vn 0.948900 -0.000000 0.315577
vn 0.862782 0.000000 0.505576
vn 0.599270 -0.000001 0.800547
vn 0.438222 -0.000001 0.898867
vn 0.266679 -0.000000 0.963786
vn 0.089483 -0.000000 0.995988
vn -0.089475 -0.000000 0.995989
vn -0.266673 -0.000000 0.963787
vn -0.438222 -0.000001 0.898867
vn -0.599266 -0.000000 0.800550
vn -0.862781 -0.000000 0.505578
vn -0.948905 -0.000000 0.315562
vn -0.994222 0.000000 0.107345
vn -0.948898 -0.000000 -0.315584
vn -0.862786 0.000000 -0.505570
vn -0.743374 0.000000 -0.668876
vn -0.599270 0.000001 -0.800547
vn -0.438243 0.000000 -0.898856
vn 0.000000 1.000000 0.000039
vn 0.000000 1.000000 0.000025
vn 0.000000 1.000000 0.000016
vn 0.000000 1.000000 -0.000002
vn 0.000000 1.000000 0.000002
vn 0.000000 1.000000 -0.000003
vn -0.266662 0.000001 -0.963790
vn 0.000000 -1.000000 0.000005
vn 0.000000 -1.000000 -0.000001
vn -0.000003 -1.000000 -0.000000
vn -0.000001 -1.000000 -0.000001
vn -0.000024 -1.000000 -0.000000
vn -0.000001 -1.000000 -0.000003
vn 0.000001 -1.000000 -0.000003
vn -0.000001 -1.000000 -0.000002
vn 0.000001 -1.000000 -0.000002
vn 0.000000 -1.000000 -0.000002
vn 0.000017 -1.000000 -0.000010
g Cylinder_Cylinder.001_Material_Cylinder_Cylinder.001_Material_M_Cylinder_Cylinder.001_Material_Cylinder_Cylinder.001_Material_M_Material.002
usemtl Material.002
s off
f 1/1/1 2/2/1 3/3/1
f 3/3/2 4/4/2 5/5/2
f 5/5/3 6/6/3 7/7/3
f 7/7/4 8/8/4 9/9/4
f 9/9/5 10/10/5 11/11/5
f 11/12/6 12/13/6 13/14/6
f 13/14/7 14/15/7 15/16/7
f 15/16/8 16/17/8 17/18/8
f 17/18/9 18/19/9 19/20/9
f 19/20/10 20/21/10 21/22/10
f 21/22/11 22/23/11 23/24/11
f 23/24/12 24/25/12 25/26/12
f 25/26/13 26/27/13 27/28/13
f 27/28/14 28/29/14 29/30/14
f 29/30/15 30/31/15 31/32/15
f 31/32/16 32/33/16 33/34/16
f 33/34/17 34/35/17 35/36/17
f 35/36/18 36/37/18 37/38/18
f 37/38/19 38/39/19 39/40/19
f 39/40/20 40/41/20 41/42/20
f 41/42/21 42/43/21 43/44/21
f 43/45/22 44/46/22 45/47/22
f 45/47/23 46/48/23 47/49/23
f 47/49/24 48/50/24 49/51/24
f 49/51/25 50/52/25 51/53/25
f 51/53/26 52/54/26 53/55/26
f 53/55/27 54/56/27 55/57/27
f 55/57/28 56/58/28 57/12/28
f 57/59/29 58/60/29 59/61/29
f 59/61/30 60/62/30 61/63/30
f 4/64/31 2/65/31 6/66/31
f 62/67/32 1/1/32 63/68/32
f 61/63/33 64/69/33 63/68/33
f 1/70/34 3/71/34 63/72/34
f 2/2/1 4/4/1 3/3/1
f 4/4/35 6/6/35 5/5/35
f 6/6/36 8/8/36 7/7/36
f 8/8/37 10/10/37 9/9/37
f 10/10/38 12/73/38 11/11/38
f 12/13/39 14/15/39 13/14/39
f 14/15/40 16/17/40 15/16/40
f 16/17/41 18/19/41 17/18/41
f 18/19/42 20/21/42 19/20/42
f 20/21/43 22/23/43 21/22/43
f 22/23/44 24/25/44 23/24/44
f 24/25/12 26/27/12 25/26/12
f 26/27/45 28/29/45 27/28/45
f 28/29/46 30/31/46 29/30/46
f 30/31/47 32/33/47 31/32/47
f 32/33/48 34/35/48 33/34/48
f 34/35/49 36/37/49 35/36/49
f 36/37/50 38/39/50 37/38/50
f 38/39/51 40/41/51 39/40/51
f 40/41/52 42/43/52 41/42/52
f 42/43/21 44/74/21 43/44/21
f 44/46/53 46/48/53 45/47/53
f 46/48/54 48/50/54 47/49/54
f 48/50/55 50/52/55 49/51/55
f 50/52/25 52/54/25 51/53/25
f 52/54/56 54/56/56 53/55/56
f 54/56/57 56/58/57 55/57/57
f 56/58/58 58/13/58 57/12/58
f 58/60/59 60/62/59 59/61/59
f 60/62/60 64/69/60 61/63/60
f 2/65/61 62/75/61 6/66/61
f 62/75/31 64/76/31 6/66/31
f 64/76/62 60/77/62 6/66/62
f 60/77/31 58/78/31 6/66/31
f 58/78/31 56/79/31 6/66/31
f 56/79/31 54/80/31 6/66/31
f 54/80/63 52/81/63 6/66/63
f 52/81/31 50/82/31 6/66/31
f 50/82/31 48/83/31 6/66/31
f 48/83/31 46/84/31 6/66/31
f 46/84/31 44/85/31 6/66/31
f 16/86/31 20/87/31 18/88/31
f 14/89/31 20/87/31 16/86/31
f 14/89/31 22/90/31 20/87/31
f 14/89/31 24/91/31 22/90/31
f 12/92/31 24/91/31 14/89/31
f 12/92/31 26/93/31 24/91/31
f 10/94/31 26/93/31 12/92/31
f 10/94/31 28/95/31 26/93/31
f 8/96/31 28/95/31 10/94/31
f 8/96/31 30/97/31 28/95/31
f 6/66/31 30/97/31 8/96/31
f 6/66/31 32/98/31 30/97/31
f 6/66/31 34/99/31 32/98/31
f 6/66/64 36/100/64 34/99/64
f 6/66/65 38/101/65 36/100/65
f 6/66/66 40/102/66 38/101/66
f 44/85/31 42/103/31 6/66/31
f 42/103/31 40/102/31 6/66/31
f 2/2/32 1/1/32 62/67/32
f 64/69/67 62/67/67 63/68/67
f 3/71/68 5/104/68 63/72/68
f 5/104/34 7/105/34 63/72/34
f 7/105/34 9/106/34 63/72/34
f 9/106/34 11/107/34 63/72/34
f 11/107/34 13/108/34 63/72/34
f 13/108/34 15/109/34 63/72/34
f 15/109/34 17/110/34 63/72/34
f 17/110/69 19/111/69 63/72/69
f 19/111/34 21/112/34 63/72/34
f 21/112/34 23/113/34 63/72/34
f 23/113/69 25/114/69 63/72/69
f 51/115/70 47/116/70 49/117/70
f 53/118/71 47/116/71 51/115/71
f 53/118/34 45/119/34 47/116/34
f 53/118/34 43/120/34 45/119/34
f 55/121/34 43/120/34 53/118/34
f 57/122/34 43/120/34 55/121/34
f 57/122/34 41/123/34 43/120/34
f 57/122/72 39/124/72 41/123/72
f 59/125/73 39/124/73 57/122/73
f 59/125/74 37/126/74 39/124/74
f 61/127/75 37/126/75 59/125/75
f 63/72/75 37/126/75 61/127/75
f 63/72/76 35/128/76 37/126/76
f 63/72/77 33/129/77 35/128/77
f 63/72/77 31/75/77 33/129/77
f 63/72/75 29/130/75 31/75/75
f 25/114/78 27/131/78 63/72/78
f 27/131/75 29/130/75 63/72/75
